<?xml version="1.0" encoding="utf-8"?>
<!-- Generator: Adobe Illustrator 27.7.0, SVG Export Plug-In . SVG Version: 6.00 Build 0)  -->
<svg version="1.1" id="logo" xmlns="http://www.w3.org/2000/svg" xmlns:xlink="http://www.w3.org/1999/xlink" x="0px" y="0px"
	 viewBox="0 0 521.3 137.7" style="enable-background:new 0 0 521.3 137.7;" xml:space="preserve">
<style type="text/css">
	.st0{fill:#05E0B6;}
	.st1{fill:#FFCD00;}
</style>
<g>
	<path class="st0" d="M307.2,40.5c6.6,0,12.4,4.2,14.5,10.4l10.1,29.8h0.2l9.5-29.5c2-6.3,7.9-10.6,14.6-10.6h6.9v44.9
		c0,6.6-5.4,12-12,12h0V57.6h-0.2l-14.3,39.9h-9.9L312.3,58h-0.2v39.5l0,0c-6.6,0-12-5.4-12-12V40.5H307.2z"/>
	<path class="st0" d="M384.3,53.4v44.1h-0.8c-6.6,0-12-5.4-12-12V40.5h0C378.5,40.5,384.3,46.3,384.3,53.4z"/>
	<path class="st0" d="M392.7,40.5c7.9,0,15.3,4.1,19.5,10.8l17.6,28.4h0.2V58.1h12v26.5c0,7.1-5.8,12.9-12.9,12.9h0l-24.3-37.6h-0.2
		v25.6c0,6.6-5.4,12-12,12h0L392.7,40.5L392.7,40.5z"/>
	<path class="st0" d="M430,51.3L430,51.3c0-6,4.8-10.8,10.8-10.8h39.6v0c0,6-4.8,10.8-10.8,10.8h-6.7V97h-12.9V51.3H430z"/>
</g>
<g>
	<path class="st1" d="M158,63.3h25.5v11H158v11.6h27.5v11h-41.1V40.9h41.1v11H158V63.3z"/>
	<path class="st1" d="M236.9,90c-6.7,5.7-12.7,8-21,8c-8.6,0-15.3-2.8-20.5-8.5c-4.8-5.3-7.5-12.7-7.5-20.5c0-9.1,3.7-17.5,9.9-22.9
		c4.9-4.2,11-6.3,18.5-6.3c4.7,0,9.3,1,13.2,2.8c2.9,1.3,4.6,2.6,8,5.7l-8.7,9.1c-3.9-3.4-7.7-5-12-5c-9,0-15.2,6.6-15.2,16.2
		c0,9.9,6.6,16.8,16,16.8c4.8,0,8.2-1.5,11.2-4.8L236.9,90z"/>
	<path class="st1" d="M294,69c0,16-13.1,28.9-29.3,28.9c-16.7,0-29.9-12.7-29.9-28.8c0-8.1,3.3-15.7,9.4-21.5
		c5.4-5,12.7-7.8,20.9-7.8C281.6,39.8,294,52.3,294,69z M248.7,68.9c0,9.2,7,16.4,15.8,16.4c8.7,0,15.8-7.2,15.8-16.2
		c0-9.6-6.7-16.8-15.7-16.8C255.5,52.4,248.7,59.5,248.7,68.9z"/>
</g>
<g>
	<polygon class="st1" points="129.6,29.6 118.3,40.9 72.4,40.9 84.2,29.6 	"/>
	<polygon class="st1" points="114.8,44.3 114.8,44.4 103.5,55.7 57,55.7 68.8,44.3 	"/>
	<path class="st0" d="M129.6,29.6v36.1c0,8.4-4.3,16.2-11.3,20.8l0-2.5v-43L129.6,29.6z"/>
	<path class="st0" d="M114.8,44.3v33.1c0,8.4-4.3,16.2-11.3,20.8l0-2.5V55.7L114.8,44.3z"/>
	<path class="st0" d="M100.1,59.1v30.2c0,8.4-4.2,16.2-11.3,20.8V70.4h-16C83,70.4,92.8,66.4,100.1,59.1z"/>
	<path class="st1" d="M100.1,59.1L100.1,59.1c-7.2,7.2-17,11.3-27.3,11.3H41.6l11.8-11.3H100.1z"/>
</g>
</svg>
